<svg version="1.1" xmlns="http://www.w3.org/2000/svg" xmlns:xlink="http://www.w3.org/1999/xlink" viewBox="0 0 172 172"><g fill="none" fill-rule="nonzero" stroke="none" stroke-width="1" stroke-linecap="butt" stroke-linejoin="miter" stroke-miterlimit="10" stroke-dasharray="" stroke-dashoffset="0" font-family="none" font-weight="none" font-size="none" text-anchor="none" style="mix-blend-mode: normal"><path d="M0,172v-172h172v172z" fill="none"></path><g fill="#000000"><path d="M48.375,16.125c-8.89294,0 -16.125,7.23206 -16.125,16.125v32.25c0,2.96431 2.41069,5.375 5.375,5.375h26.875c2.96431,0 5.375,-2.41069 5.375,-5.375v-10.75h26.875v21.5h-16.125c-8.89294,0 -16.125,7.23206 -16.125,16.125v26.875c0,2.96431 2.41069,5.375 5.375,5.375h26.875c2.96431,0 5.375,-2.41069 5.375,-5.375v-10.75h21.5c8.89294,0 16.125,-7.23206 16.125,-16.125v-59.125c0,-8.89294 -7.23206,-16.125 -16.125,-16.125zM48.375,21.5h75.25c5.92863,0 10.75,4.82138 10.75,10.75v59.125c0,5.92863 -4.82137,10.75 -10.75,10.75h-21.5c-2.96431,0 -5.375,2.41069 -5.375,5.375l0.00525,10.75h-26.88025v-26.875c0,-5.92863 4.82138,-10.75 10.75,-10.75h16.125c2.96431,0 5.375,-2.41069 5.375,-5.375v-21.5c0,-2.96431 -2.41069,-5.375 -5.375,-5.375h-26.875c-2.96431,0 -5.375,2.41069 -5.375,5.375v10.75h-26.875v-32.25c0,-5.92862 4.82137,-10.75 10.75,-10.75zM120.9375,32.25c-1.48619,0 -2.6875,1.204 -2.6875,2.6875c0,1.4835 1.20131,2.6875 2.6875,2.6875h5.375c1.48619,0 2.6875,-1.204 2.6875,-2.6875c0,-1.4835 -1.20131,-2.6875 -2.6875,-2.6875zM120.9375,45.6875c-1.48619,0 -2.6875,1.204 -2.6875,2.6875c0,1.4835 1.20131,2.6875 2.6875,2.6875h5.375c1.48619,0 2.6875,-1.204 2.6875,-2.6875c0,-1.4835 -1.20131,-2.6875 -2.6875,-2.6875zM120.9375,59.125c-1.48619,0 -2.6875,1.204 -2.6875,2.6875c0,1.4835 1.20131,2.6875 2.6875,2.6875h5.375c1.48619,0 2.6875,-1.204 2.6875,-2.6875c0,-1.4835 -1.20131,-2.6875 -2.6875,-2.6875zM120.9375,72.5625c-1.48619,0 -2.6875,1.204 -2.6875,2.6875c0,1.4835 1.20131,2.6875 2.6875,2.6875h5.375c1.48619,0 2.6875,-1.204 2.6875,-2.6875c0,-1.4835 -1.20131,-2.6875 -2.6875,-2.6875zM120.9375,86c-1.48619,0 -2.6875,1.204 -2.6875,2.6875c0,1.4835 1.20131,2.6875 2.6875,2.6875h5.375c1.48619,0 2.6875,-1.204 2.6875,-2.6875c0,-1.4835 -1.20131,-2.6875 -2.6875,-2.6875zM69.875,129c-2.96431,0 -5.375,2.41069 -5.375,5.375v21.5c0,2.96431 2.41069,5.375 5.375,5.375h26.875c2.96431,0 5.375,-2.41069 5.375,-5.375v-21.5c0,-2.96431 -2.41069,-5.375 -5.375,-5.375zM69.875,134.375h26.875v21.5h-26.875z"></path></g></g></svg>
